/* XPM */
static char *b25dccd9a10b464ebf7f6b545fb31e65OLG8n1ohwckQB3NC[] = {
/* columns rows colors chars-per-pixel */
"64 64 256 2 ",
"   c #2D0A06",
".  c #FDAD9D",
"X  c #AA3F30",
"o  c #2B0705",
"O  c #FEBEAD",
"+  c #FEBAAA",
"@  c #9E3B2B",
"#  c #330A08",
"$  c #E6836B",
"%  c #FDA999",
"&  c #E97F6D",
"*  c #FDA894",
"=  c #FE9789",
"-  c #9A3728",
";  c #E2816A",
":  c #7B281B",
">  c #FEA391",
",  c #FEB9A4",
"<  c #721A18",
"1  c #FDB29D",
"2  c #B34536",
"3  c #380A08",
"4  c #EF8476",
"5  c #E06E60",
"6  c #AA4535",
"7  c #FDB0A2",
"8  c #9D4331",
"9  c #E27E66",
"0  c #D97760",
"q  c #FDB6A8",
"w  c #C8604C",
"e  c #812B1F",
"r  c #BA5444",
"t  c #F99988",
"y  c #BF543B",
"u  c #BC5139",
"i  c #DE7C63",
"p  c #FDBEAA",
"a  c #F58678",
"s  c #ED8173",
"d  c #6C1E1B",
"f  c #FDB5A2",
"g  c #FEA091",
"h  c #CE5E51",
"j  c #863627",
"k  c #A44B34",
"l  c #95352B",
"z  c #B45542",
"x  c #9A3E23",
"c  c #D46859",
"v  c #E37265",
"b  c #DD6D60",
"n  c #E1856D",
"m  c #BD5D43",
"M  c #F08878",
"N  c #FBA392",
"B  c #B8503F",
"V  c #A44233",
"C  c #9C4329",
"Z  c #A55142",
"A  c #B14C33",
"S  c #D5735B",
"D  c #D67862",
"F  c #E37769",
"G  c #FE9C8E",
"H  c #D56D5C",
"J  c #E17364",
"K  c #CE745D",
"L  c #843123",
"P  c #A63E2C",
"I  c #8B3528",
"U  c #C0664F",
"Y  c #762221",
"T  c #A23D2F",
"R  c #781918",
"E  c #A9503B",
"W  c #BA624E",
"Q  c #C46152",
"!  c #D46250",
"~  c #ED7E6D",
"^  c #D26954",
"/  c #FEBCA7",
"(  c #BD4B3D",
")  c #7F231D",
"_  c #F28373",
"`  c #F78C7C",
"'  c #D27360",
"]  c #F89780",
"[  c #C1553E",
"{  c #B74B33",
"}  c #E7796B",
"|  c #43100C",
" . c #FDA496",
".. c #782019",
"X. c #C66954",
"o. c #D25C4E",
"O. c #AF4838",
"+. c #8D3120",
"@. c #B03E33",
"#. c #AD5441",
"$. c #B35D4E",
"%. c #AC5146",
"&. c #C75A43",
"*. c #BB4D36",
"=. c #D97C64",
"-. c #CB5D4A",
";. c #C46047",
":. c #E57E6B",
">. c #FEC1AF",
",. c #FDAD95",
"<. c #EB786B",
"1. c #C96B56",
"2. c #FB9484",
"3. c #C04D41",
"4. c #F49786",
"5. c #9E4A3E",
"6. c #F28C76",
"7. c #C8735D",
"8. c #BD583F",
"9. c #B3442E",
"0. c #EC7D72",
"q. c #EE826E",
"w. c #C35342",
"e. c #E77367",
"r. c #DE7D68",
"t. c #8F3F2E",
"y. c #E87C66",
"u. c #923324",
"i. c #F28B7F",
"p. c #B25040",
"a. c #954030",
"s. c #F7927E",
"d. c #F0917C",
"f. c #9F5441",
"g. c #CE634C",
"h. c #FC8E81",
"j. c #EA8273",
"k. c #731E1A",
"l. c #C75B4B",
"z. c #FCB199",
"x. c #D86558",
"c. c #FC9E8B",
"v. c #933926",
"b. c #C65046",
"n. c #A4392D",
"m. c #8F2521",
"M. c #C46D59",
"N. c #993024",
"B. c #A3483A",
"V. c #CD6751",
"C. c #872B21",
"Z. c #DD7764",
"A. c #7F3220",
"S. c #EC856D",
"D. c #A13728",
"F. c #EC7F6A",
"G. c #C16756",
"H. c #CC6C5B",
"J. c #B45C45",
"K. c #DE8171",
"L. c #BC6455",
"P. c #4F1D0B",
"I. c #A03F26",
"U. c #FECDBA",
"Y. c #DA6B60",
"T. c #C15B45",
"R. c #D36455",
"E. c #DF675B",
"W. c #8A3A2D",
"Q. c #F9887A",
"!. c #CC574C",
"~. c #4B0F0D",
"^. c #9B322B",
"/. c #F49182",
"(. c #C8554A",
"). c #CA6352",
"_. c #9A3D2D",
"`. c #9C4835",
"'. c #954439",
"]. c #852021",
"[. c #BC5849",
"{. c #DB6958",
"}. c #FDB69D",
"|. c #6C1713",
" X c #9A382D",
".X c #FE9287",
"XX c #E68271",
"oX c #BD5D4A",
"OX c #F8A18D",
"+X c #902C23",
"@X c #EB8B7B",
"#X c #8F372E",
"$X c #B24B3C",
"%X c #962A20",
"&X c #CA6F61",
"*X c #AC584C",
"=X c #B75037",
"-X c #DD846A",
";X c #DE7357",
":X c #AC392C",
">X c #AB4B3B",
",X c #DA7C6B",
"<X c #D46D56",
"1X c #FEC6B5",
"2X c #732B1F",
"3X c #7B2D27",
"4X c #530F0B",
"5X c #E78A72",
"6X c #D87669",
"7X c #671A17",
"8X c #8D4235",
"9X c #88281C",
"0X c #5F1814",
"qX c #CE6F56",
"wX c #811E1A",
"eX c #B7483D",
"rX c #ED8B74",
"tX c #CE7963",
"yX c #B7574C",
"uX c #B27860",
"iX c #FDC4B2",
"pX c #652422",
"aX c #FDA68A",
"sX c #F37E72",
"dX c #BB5D50",
"fX c #BE7764",
"gX c #885241",
"hX c #58210F",
"jX c #D96E53",
"kX c #B84136",
"lX c #A3302D",
"zX c #AD634D",
"xX c #BB725B",
"cX c #B16C54",
"vX c #673623",
"bX c #C28975",
"nX c #AB472E",
"mX c #E3765F",
"MX c #66130D",
"NX c #610F07",
"BX c #F69E7D",
"VX c #632711",
"CX c #CB937F",
"ZX c #78432D",
"AX c #BF846C",
"SX c #FDD3BF",
"DX c #F39577",
"FX c #CC7F6B",
"GX c #BD9A85",
"HX c #B38171",
"JX c #D69C8B",
"KX c #F39D8C",
"LX c #9C6757",
"PX c #A76145",
"IX c #E5CAB4",
"UX c #E9DFC4",
/* pixels */
"-XBXBXDXn D K U oX[.B >Xk >X6 X 2 2 ( *.*.3.3.b.o.{.v <.~ q._ F.5 h -.b.w.3.eX2 O.O.6 T V 6 n.n.n.I.D.n.n.X X @.eX(.R.9 6.c.,.,.",
"BXBXDX$ 0 qXX.U oXr p.6 k 6 P P P X @.9.9.kX( w.-.E.e.<.F.6.M ~ 5 w 3.( ( eX2 2 X @ T T V T ^.N.N.D.P P V O.6 X X @.eXh 5 S.BXaX",
"aXDX$ 0 V.;.T.oXr p.O.6 6 6 X P P n.P :X:X9.kX*.&.E.<.~ M /.] 4 H T.B ( ( 2 X n.@  X X@ @  XN.N.O.!.Q oX).c Q B 6 X @.eXl.^ ; DX",
"BX$ <XV.;.r r r z z $XO.6 P T P T D.P D.:X9.9.{ w.x.y.a t > OXi.F h 3.3.*.X T @ _. X X X- +X@ Q 6XK.&X1.Z.:.' Q ).$XX X 2 w.^ 9 ",
"; ^ T.T.r r r r [.oXr B O.V @ T T @ @ @ P X @.9.( ! y.] * 1 % t s R.!.b.2 P @  X X X X_.+X@ G.,XK.7.r T.w w Q 1.H.r B X X { w.^ ",
";.u A O.6 p.p.r [.[.dX[.z 6 V T T - @ -  XX X X 2 ! 6.c.1 / f > M b R.l.O.T l l l -  Xu.@ Q H.Q [.B eXyXfXW 2 B z [.r 2 O.2 r Q ",
"A X n.@ - T V p.yXyXdXdXyX#.6 V - N.- v._.T X X 2 {.] ,./ p , ,.] 9 r.H.6 - l u.l T @ - p.[.O.V >XL.&XbXIXGX$.#.>X$XO.z $X6 $Xl.",
"P D.^.%X+.@ >XyXdXW U L.W W p.V l u.u.u.v.@ D.V B F N f p O f ,.> /./.' @ - u.N.@ V V p.B X T #.FXJXJXIXUXGXCXfXW p.>X%.$XO.A B ",
"D.N.u.u.B.%.dXL.L.W M.M.M.M.W #.8 +.+.+.u.- @ >XQ @X1 f / + , 1 * > g D V @ - T 6 >Xp.p.n.- %.FXJXJXHXGXGXGXJXCXbXxXJ.6 2 B p.B ",
"@ u.+.B.dX%.B.B.B.B.#.$.L.M.U yXB.v.+.+.u.v._.yXK.1 / / + + , f . * N ,X[.z p.$Xp.r z T %XV fXCXCXgXZXvXgXLXHXCXCXAXcX6 6 z oXoX",
"@ +.l %.B.l #Xa.`.Z $.*XZ #.z z >X8 v.+.+.v.8 &X% + O p + / + + f % N @XK.,X' ' ' Q V %Xu.J.FXbXgXhXP.P.hXvXgXHXbXAXxXZ `.J.Q oX",
"- v._._.l a.f.cXuXfXAXfXuXzXZ B.B.8 _._.- v.#.KX, p O + / p O O + . N t t 4.4./.@XQ V - V W fXzX2XhX~.P.P.P.vXLXfX7.xXzXE [.X.Q ",
"_.8 v.v.a.zXuXuXuXuXHXAXbXbXxXZ a._.8 V >Xk K., / p O + / p O O O q % G c.g OXc./.6XX.[.oXU L.Z 3XpXhXP.P.VXvXgXL.1.7.G.[.V.Z.0 ",
"8 l u.t.PXuXuXgXZXvXZXLXHXbXAXcX`.+.v.p.Q D ,., / p p + + + + >.O q . g > N > N t i.@Xr.0 0 ' W f.gXZXZXgXf.f.L.7.K H.H.qXn 6.rX",
"8 I +.f.cXcXZXVXhXhXhXvXgXuXAXxXZ @ E G.,XOX1 , / / / + p + O O O q 7 % > g > g c.= 4.@XrX5X5XK.K.tXxXxXfX7.7.&XK qXH.' r.rXs.] ",
"8 v.a.zXcXf.VXhXP.P.P.P.vXcXFXtXM.H.6XK.KX. f , / , , + p O O / / + q 1 N c.g g g g OX4./.d.d.] ] d.d.5Xn n r.6X0 S 0 ; 5XrX] aX",
"8 v.k zXPXj VXVXhXhXVX2Xf.tXK.K.n XX@Xd.OX. , O p / , , p O p / + q q 7 * N > > * * * N t /.s.s.s.2.t t t t t t d.rX@X@X5X5XOX,.",
"E k J.zXf.t.A.A.A.t.f.M.,XXX& :.M /.] d.4.. q >.iXp , , + O >.O O + 7 % * OX> > * ,.,.% % N KX4.4.4.OX . .% % % > KX4.4.4.OX,.z.",
"7.X.U #.E #.J.W X.K =.& y.9 9 5Xt c.] rX`  .f iX1Xp , , + >.1X1X1XO 7 > c.c.t c.> * z.1 f f 7 . % % % % . . % . ,.* % % ,.,.z.}.",
"5XD X.Q H.6Xr.& & F.F.F.y.$ d.N > c.` & $ ] z.>.p , , + >.iX1XU.U.1Xq % t /.M i.t N 7 , p O >.>.>.>.>.+ q f . 7 7 . . . z.1 1 }.",
"5XD r.XXM j.:.F F.q.rXs.4.N % %  .2.s H H ` * , , f f q + p p iXU.1Xq % t i.XX} 4 OX. + >.iX1XU.U.SXU.U.iXO O + q f 1 1 1 z.}.f ",
"5XrXd.s.M :.9 j./.t N . 7 7 7 % g i.Z.!.o.2. .% % % % * * ,.z.1 + + . N 2.s.y.5 & 2.> 1 , >.iXU.SXSXSXU.U.iX>.O + q f f 1 1 1 f ",
"d.] ] s.M d.4. .. 7 7 , q q 1 > 2.0.c 3.J z.* = = = 2.2.2.2.t c.N N c.= = 2.F.{.5 _ = g . q O 1XU.U.U.U.1X>.O q q q 7 . z.z.}.1 ",
"aXaXaXc.OX. . 7 7 q q , f 7 * = Q.F o.!.KX}.KXa a a _ _ _ _ _ a M 4 4 ` h.2._ 5 ! v Q.= g % . q p O O O + q 7 . . % % * * ,.z.1 ",
",.z.z.z.}.f 1 1 . 7 f f .  .G h._ 5 h @Xq OXj.5 5 b b b 5 5 J v J b 5 J ~ ` ` <.E.E.0.h.G >  .% . 7 7 7 7 7 7  .g g g > g > * * ",
"}.}.}.}.z.* * *  . .* %  .g .Xa 0.E.Y.* * j.E.-.l.l.l.l.!.!.h h w l.l.T.c F Q.Q.v {.e._ = g  .N N  . . . . .g G = = = = .X= G G ",
"z.z.,.* t t G G g G G G = .XQ.sX<.x.J /.:.h 3.3.( B eX2 eX( ( w.( A O.9.=X(.e.Q.e.! E.~ ` G G G G = = = = = = = 2./.h.a a ` s.2.",
"aXaX] 6.` 2.= = 2..X.Xh.h.Q._ } 5 o.E.b (.kX@.@.@.2 @.X X X X @.X P D.D.:X@.(.e.b !.o.5 s 2.= = 2..Xh.` ` h.h.h.` a s s s s M M ",
"DX6.q.F.M ` ` ` a a Q.Q._ sX<.v x.o.o.!.kX:Xn.@ T @.:Xn.@ - D.D.D.@ - +.9X%X@.(.h b.b.R.} a h.h.h.` a a a _ a a a _ & & ~ F.S.4 ",
"y.mXmXy.6.4 S.F.F.~ ~ ~ } F v b o.(.w.3.:X%X9XC.+X^.^.- -  X X^.- a.e NXNX..N.@.w.( ( h v 0.a Q.Q.a 4 s & s s ~ q.q.q.q.& & & & ",
";X;X;Xy.q.y.J mX5 v e.v v J Y.x.o.3.B $XD.m.R R R ) C.u. X Xl  X Xe 4X~.4X|.+XX eX2 2 b.x.v ~ q._ _ s ~ } } F } & :.& & & & & & ",
"jX;X;Xy.y.{.{.{.{.E.E.E.E.b x.R.(.3.w.O.- +XwXR |.MX< C.l l l l #X7X~.~.4X< N.n.2 $X2 3.h b } ~ ~ 0.0.<.e.v v F F F :.:.} y.F.& ",
";X;XmXy.jXo.o.! o.o.! x.x.x.R.g.l.(.l.O.- %X9X) k.NXNX) +.#X#Xl #X0X~.4X4X< ^.P O.[.(.3.b.R.F <.<.& 0.F v 5 5 b Y.0 Z.Z.J F F :.",
";X;X;XjXg.-.&.(.!.!.o.! ! ! R.h -.l.l.nXN.%X+XC...NXMXwXC.I I l I d 0X4XNXwX%X@ E &XY.l.b.h b F <.0.} F J 5 b c c H H Z.J Z.0 Z.",
"jXjX^ g.-.w.w.w.b.(.!.-.h ! g.-.-.h l.nXD.%Xm.9X) ..: C.C.j W.I I A.Y MXR +X- u.#.XX4 Y.!.h c 5 <.<.e.J J b c ^ ^ ^ c Y.b H <XS ",
"jXjXg.&.[ *.( ( ( b.!.&.-.g.w -.o.R.l.A @.n.+X+.C.j L L e e 3XL j j L e +.l 8 V X./.t :.h h c Y.v e.e.v 5 Y.c c ^ R.c c R.).^ H ",
"g.g.-.&.[ 2 { *.*.w.w.&.-.w w h ! c w u 2 X _.v.I j L ) : Y 3XW.t.#X#X5.Z %.*XG.K.g N /.J h h Y.v v v F b Y.c c c c V.).).w V.^ ",
"g.&.&.y *.2 9.{ { u 3.&.-.w w ! x.Y.w u B O.8 a.#XL 3XY Y 3X'.*X5.'.5.*X$.L.G.6X4.% % G s x.h Y.e.F F F J Y.H H c R.).w ).).V.^ ",
"&.[ y u 9.9.{ { *.y w.&.-.g.g.^ b 5 g.B B $XB.'.W.j 3X3Xj 8X$.L.*X5.Z *X*X$.W ' t 7 . N /.J x.b e.0.0.0.} J J Y.H H H V.V.^ <X^ ",
"[ y *.{ 9.{ { { *.[ w.-.g.! {.{.J y.^ m r B B.W.j '.5.Z *XL.&X&X$.%.%.%.Z Z Z G.i.% . % c.& Y.5 } 0.0.0.& } F Z.H H H H ^ H H S ",
"[ [ u { 9.9.{ *.u y &.h R.{.J J & S.0 1.).z a.I Z ' b v 0.i.i.i.K.6X6X).z 5.'.%.,XOX. % g i.F v } s j.j.j.:.F Z.0 S S S S S S S ",
"y u *.*.9.9.{ *.u [ -.! {.J } & M 6.5X=.Q B.a.L.j._ sXsXQ..X.X.X.Xh.` 4 Z.dX'.#XL.d.N %  .t j.} } j.j.s s j.:.Z.0 Z.0 0 0 0 S 0 ",
"u u *.{ { { u u u &.g.<XmXF.S.6.s.] d.1.E 8 &Xi.<.E.o.o.x.v sXsXsXa Q.h.` r.yX`.E ' 4.> > G i.& } & 4 4 4 j.XX9 i 9 i i i =.i 9 ",
"y y y u u =X=X[ [ &.<Xi 9 S.6.s.] ] 0 k C M.d.R.3.kX:X@.kX( (.b.b.o.E.<._ q.H #.8 z ,X4.c.G /.j.& 0.4 4 M 4 q.$ $ $ 9 9 i r.i i ",
"[ y y u y =X=X8.&.V.0 9 S.6.s.] ] 9 p._.$.@Xw :XN.m.m.m.%XN.lXlXlX:XkXb.x.v b X.E B.U K.d.4./.i.4 s 4 4 4 M S.$ :.:.9 ; ; ; r.0 ",
"[ y [ y y u [ T.w ^ 0 ; rX` s.d.5XU k E ,X).lX%XwXwXR R wX].].wX].m.m.lX@.b.R.H U E #.M.K.@Xi.i.M 4 M M M M q.$ 9 9 9 $ ; ; r.S ",
"[ y [ u y [ &.;.g.^ i ; S.6.S.$ ' z k H.H P +X].....< < < < R R < R wX].m.lX(.c H.z E E M.K.@Xi.a _ 4 4 M M 4 & i 9 $ $ $ ; i S ",
"y y y 8.8.T.;.w g.<Xi XXS.S.i K W `.E ' B N.].Y ..Y k.k.k.< k.k.|.|.< R R m.lXb.c X.$.E $.&X,Xj.4 _ q.& q.j.j.:.i $ S.$ $ 9 i S ",
"y y u 8.8.8.T.w V.S i $ $ =.X.U #.8 J.L.T +X) Y ....< < < < < < |.|.< k.R ].m.@.Q H 1.#.Z $.&X6X:.4 q.& & j.j.:.9 $ $ $ r.=.S qX",
"u { =Xu 8.8.8.;.V.<X0 9 i qXW J.`.k J.%. X+X) k.k.< k.< k.d k.d |.d k.k.R R ].^.$X).' J.Z *X$.M.,XXXXX& $ j.j.:.9 ; $ ; =.D ' 1.",
"=XA A =Xu [ T.;.w V.S ;XqXU J.k a.`.#.%.l +X9X..d k.d d d Y Y Y d d 7XY ..R ) m.^.r H.U *XZ $.W &X6X,Xr.; & j.$ $ n ; =.D ' H.1.",
"=XA A A =Xu 8.T.w ).qXqXX.W f.t.v.v.B.B.l C.) ..d < 7Xd Y 3X3X2X2X2XY Y R Y Y ].^.6 Q G.*Xf.f.$.L.&X' ' r.r.j.XX$ ; =.D D K U Q ",
"A nXA A A =X8.T.;.w qXqXU #.a.j I u.8 8 +XC.) k.d 7X0XpXpXpXpXpXpXpX7X7X|.< R ].+Xn.r Q %.'.'.f.$.G.1.K =.; XX$ ; i D ' ' 1.U oX",
"A nXP nXA A 8.m ;.;.V.V.oXk t.W.I I l 8 C.e : < d 0X~.~.~.| | | | ~.~.~.4XMXR ..C.^.O.dX%.t.8X'.Z $.G.H.D ; $ ; ; =.D ' 1.1.X.W ",
"nXI.I.P A A =X8.T.w g.w z `.W.j I C.+.a.C.e ) < MX~.3 3 # o     #   # # | 4X|.k.e +Xn.yX%.t.W.8X'.f.$.X.S r.$ ; ; =.D K 1.X.X.W ",
"I.I.I.I.nXA z r m ;.;.;.m 8 j j L : I t.I e ) ..7X| # #       o     o   # | 4X|.) +X^.>X%.t.j j 8X'.*XX.K ; n ; r.=.D ' 1.X.X.W ",
"I.x x I.P O.z z r m ;.;.m 8 A.A.e : L I L e 9X) d | # #   o # #         o # | MXwXC.+XT %.`.j j W.8X#.G.D ; $ ; r.D D K 1.1.U W ",
"x x x x I.6 >Xz r m m ;.m k A.: : : e L L : ) : d | # o o o o     #       # 3 0XwXe 9Xl %.5.j L j 8XZ U 0 $ $ -Xr.D K H.1.X.U G.",
"x x x I.I.V V p.z m m ;.m k A.2X: : e L L : : ..7X| # o o o o             #   P.) e ) I Z 5.W.j W.8X5.W D 9 $ n -X=.D K 1.M.M.G.",
"x x x _.x C k >Xz 8.m m m E j 2X2X: : A.A.: ....d | o o o o o   #             | Y ].) e 5.5.t.j t.8X5.$.K =.n n -X-X=.K K 7.M.G.",
"I.x x C x x 8 k #.z z m m E W.3X: 2X2XA.A.: k.k.d | o o o         #   o o   o 3 d ) Y : a.Z '.j W.t.'.J.M.=.n n n -X=.K K 7.7.M.",
"C C C C C C C k E E z m m z t.e A.: : A.L e : d 7X| # #   # # 3 # # # # # # # # 0XY k.: #X5.`.I j t.`.#.M.-Xn n n -X=.K K 7.7.7.",
"C V C C x C C k k E z J.m J.a.L e : e L L L 3Xd 0X| 3 3 # 3 3 3 3 3 # 3 # 3 3 # 4X7Xd 3X#Xa.`.a.#Xt.`.E U =.n n n -XtX7.K 7.tXtX",
"C C C C C x C 8 k E J.oXm 8.8 W.e e L I I t.L ..0X| 3 | 3 3 3 # 3 3 3 # # # 3 3 ~.0XY I 5.5.`.5.5.a.`.k U =.-Xn -X-XtX7.K tXFXtX"
};
