/* XPM */
static char *_adb32db12e9475c996e3eebce3d2724dKkNCtjEWjwes9DV[] = {
/* columns rows colors chars-per-pixel */
"64 64 256 2 ",
"   c #B8C4D4",
".  c #B6C4D5",
"X  c #BAC6D2",
"o  c #B9C1D4",
"O  c #BCC8D8",
"+  c #BCC4D8",
"@  c #BAC6D8",
"#  c #BBC7D8",
"$  c #B9C5D6",
"%  c #B7C3D3",
"&  c #100A0C",
"*  c #BBC6D6",
"=  c #BAC3D2",
"-  c #B62121",
";  c #AFBCCC",
":  c #A61614",
">  c #603523",
",  c #1D1116",
"<  c #A31312",
"1  c #0E0706",
"2  c #9F1413",
"3  c #2A1F1E",
"4  c #BEC6D8",
"5  c #150E12",
"6  c #B6C2D1",
"7  c #CC8767",
"8  c #AEB9CA",
"9  c #AA1917",
"0  c #AB1C1C",
"q  c #362B29",
"w  c #BFC3D5",
"e  c #B5C6D3",
"r  c #7B4A36",
"t  c #B01F1D",
"y  c #960F11",
"u  c #B9C0CE",
"i  c #BD2424",
"p  c #BBC4D5",
"a  c #B41B1B",
"s  c #190A0F",
"d  c #9DAFC0",
"f  c #A41A11",
"g  c #9C1818",
"h  c #B11917",
"j  c #200807",
"k  c #7A3B28",
"l  c #B6C7D0",
"z  c #C8C1C6",
"x  c #221717",
"c  c #B3C0CE",
"v  c #BD1E1D",
"b  c #A5B4C5",
"n  c #190707",
"m  c #2F2223",
"M  c #25120E",
"N  c #6C3320",
"B  c #BD2A2A",
"V  c #643D2B",
"C  c #A41A1B",
"Z  c #C42728",
"A  c #8F0F11",
"S  c #AAB7C9",
"D  c #340E0A",
"F  c #905C42",
"G  c #80422E",
"H  c #945437",
"J  c #B4C2D2",
"K  c #B8C6DB",
"L  c #C53030",
"P  c #8A4E37",
"I  c #77422F",
"U  c #532D21",
"Y  c #37211F",
"T  c #77321E",
"R  c #7E0609",
"E  c #B7C8D6",
"W  c #28161D",
"Q  c #703C26",
"!  c #B1BAC5",
"~  c #C4C6CF",
"^  c #680C10",
"/  c #BCC2CA",
"(  c #844D35",
")  c #754F39",
"_  c #844732",
"`  c #C3C6D3",
"'  c #B82019",
"]  c #311813",
"[  c #A66C4E",
"{  c #9F6750",
"}  c #7D5240",
"|  c #D58E6C",
" . c #AE684C",
".. c #9D0E0D",
"X. c #880A0C",
"o. c #760B0E",
"O. c #582814",
"+. c #835639",
"@. c #CFD1D8",
"#. c #8E4C33",
"$. c #502012",
"%. c #B36F50",
"&. c #9E7257",
"*. c #3D170C",
"=. c #844C3D",
"-. c #BCB4B5",
";. c #941819",
":. c #C7CAD4",
">. c #A56241",
",. c #B7BEC8",
"<. c #74544A",
"1. c #BE805F",
"2. c #9A5C41",
"3. c #6C3D2F",
"4. c #806E65",
"5. c #976C4D",
"6. c #AE1511",
"7. c #A52121",
"8. c #8D5839",
"9. c #BCC4CE",
"0. c #622815",
"q. c #67271B",
"w. c #E5A584",
"e. c #B4ACAF",
"r. c #A69890",
"t. c #AFB3BF",
"y. c #BDC3DB",
"u. c #A4B0BE",
"i. c #6C4632",
"p. c #851315",
"a. c #976441",
"s. c #C23B3A",
"d. c #ABA4A7",
"f. c #B8B9C1",
"g. c #DF9E7F",
"h. c #422019",
"j. c #BB745D",
"k. c #9AAABC",
"l. c #D2D7DD",
"z. c #BD3031",
"x. c #C0949C",
"c. c #F1EFEB",
"v. c #C1C0CC",
"b. c #4E130D",
"n. c #280806",
"m. c #80655B",
"M. c #D99678",
"N. c #B27A51",
"B. c #85808C",
"V. c #330405",
"C. c #CAC2D1",
"Z. c #410B09",
"A. c #AA2018",
"S. c #5B1B13",
"D. c #823F26",
"F. c #853132",
"G. c #885B4D",
"H. c #47322F",
"J. c #7D5E54",
"K. c #9A533A",
"L. c #AC7359",
"P. c #AC9D9E",
"I. c #8F6E60",
"U. c #580C0E",
"Y. c #BA9A83",
"T. c #A52D33",
"R. c #992D34",
"E. c #B32629",
"W. c #7E5948",
"Q. c #89482C",
"!. c #BD8A6C",
"~. c #C77D59",
"^. c #92624F",
"/. c #B07E66",
"(. c #99766B",
"). c #B3B4B9",
"_. c #E3E3A0",
"`. c #EFE987",
"'. c #A6100A",
"]. c #CDB7BD",
"[. c #8E1D21",
"{. c #CC3535",
"}. c #E1DBD7",
"|. c #BF5053",
" X c #F0E6DC",
".X c #BF734F",
"XX c #D49275",
"oX c #CED2B2",
"OX c #9C7E72",
"+X c #F7F06A",
"@X c #9D5159",
"#X c #B16D76",
"$X c #D2BCC7",
"%X c #902D31",
"&X c #C59DA6",
"*X c #AD5860",
"=X c #B3363B",
"-X c #C6B3BF",
";X c #7C7178",
":X c #EAAD8E",
">X c #8D7571",
",X c #958F90",
"<X c #C99073",
"1X c #88664C",
"2X c #B6A99D",
"3X c #583E30",
"4X c #E4E391",
"5X c #A47C5D",
"6X c #C4C9DC",
"7X c #9A2121",
"8X c #B98C93",
"9X c #F0EAE3",
"0X c #B17E7D",
"qX c #9E4348",
"wX c #C6A7B1",
"eX c #A36769",
"rX c #9C8B83",
"tX c #6B5A54",
"yX c #C7A08B",
"uX c #A9AAB3",
"iX c #767685",
"pX c #BDC8C6",
"aX c #C27E87",
"sX c #D7C9C3",
"dX c #C5C0BA",
"fX c #A15939",
"gX c #B08E7A",
"hX c #6F4944",
"jX c #97847C",
"kX c #9F8E8A",
"lX c #A2876E",
"zX c #5D4641",
"xX c #B18386",
"cX c #AC454B",
"vX c #914244",
"bX c #7E2023",
"nX c #9A99A2",
"mX c #D3BEA7",
"MX c #CDB19D",
"NX c #DCDAAC",
"BX c #C1C7A8",
"VX c #A93711",
"CX c #F3B79B",
"ZX c #E8D7C7",
"AX c #CFD892",
"SX c #3E3E47",
"DX c #D0AAB8",
"FX c #BF786C",
"GX c #C37530",
"HX c #D1B198",
"JX c #B5531E",
"KX c #C7B1A5",
"LX c #EBCC94",
"PX c #E2B765",
"IX c #CC9434",
"UX c #C9CB75",
/* pixels */
"O O O O O O O O O O O O O # E E K @ # 4 w 4 # + 4 4 * @ K + X X X # @ @ # # # + p p * * + # O * * @ + # @ * # # # # # # # @ @ @ ",
"O O O O O O O O O O O O O O + y.y.* 4 w = 9.pXpXpXpXpX9.X E e E E @ X X X * * X X X X $ K E # * $ $ + @ * * # # # # # # # @ @ @ ",
"O O O O O O O O O O O O O 4 @ X X w z oX_.4X4X4X_._.NXoXdXpXw y.K p p X X X 9.X         @ E E @ + + $ @ @ * # # # # # # # @ @ @ ",
"O O O O O O O # # O O O 4 4 # l X w oX`.+X+X+X`.4XAXAX_._.oX~ 6X6X~ :.:.:.:.:.6X6X6X6X` w X e $ + @ @ * # # # @ @ # # # # @ @ @ ",
"O O O O O O # # # # O # 4 4 K @ w z 4X+X+X`.AXBXBXNXUX+X+X`.HX&X8X0X0X#X#X0XxX8X8Xx.&XwX-Xz ` O e e $ @ * + $ @ @ * # # # @ @ @ ",
"O O O # # # # @ # # @ # # X E * z _.+X`._.oXoXNXLXPXPXIXGXJXVX7X7Xg g ;.;.;.;.;.;.7X%X%XvX@XeXx.$X~ J e w w + p $ @ # # * $ @ $ ",
"O O O # * + 4 # * p * @ * l l / NX`.4XoXBXMX<X.XJXVXVXf f f 9 0 0 9 : : : : 2 2 2 2 C 2 g ;.[.[.@XwX~ l w + E + * E # # @ $ # @ ",
"O O O # + 4 + # p w + @ + w v.oX`.`.mX/. .=XE.' ' ' t 9 t t t 9 9 f f : : : < < < 2 f : f : C C A F.&X` $ K e $ 4 * # # # @ @ # ",
"4 4 4 4 + + $ @ * w + K K p BX_.4XyXj.s.L L B ' h A.: f : 9 : f f f f : : 9 : : : f f f 2 f 9 : 2 X.vX].  K l % p * # * 4 $ @ # ",
"* * * O * $ @ K y.y.K K E / _.`.N.|.s.s.L i v ' ' h 6.6.'.....y 2 < < < < : : < < ......< : 9 9 : ..[.xX` o =   . $ $ * * $ @ # ",
"@ @ @ @ E E E @ + + @ e / sXLXGXs.{.L i v v ' v ' 6.6.< ..y y X.A y y y y y ..2 < < < < : 9 9 9 6.h 2 qX].w w $ E E $ p p + $ @ ",
"$ @ @ @ $ e e . w p + ~ ].yX|.s.s.{.i v v v v v a '...y A X.X.R R R R R A y g y 2 < < < < : 9 9 h 6.a g xX~ o $ e e . p w + $ @ ",
"E E K $ l l p o $ X z &XFXcXL {.B i v v - v - h 6.'...;.%XF.q.S.U.U.^ o.p.p.A y y ..2 2 2 < 9 h a h ' f qX$X$ p =   p * $ + $ @ ",
"l $ w w p l w ` C.DXaX|.=Xs.z.z.B ' v v - h 6.'.'.C T.F.> U *.D D D Z.b.^ o.o.R X.A y 2 2 < 9 h a h a 9 7X8X` % w p X X * $ * * ",
"l l w y.K . C.].aX*X|.s.L L z.z.B i - a h '.'.< T.F.$.n.n s s s s M M n.b.qXR.R R X.A 2 2 f f 0 a h h a C @X$X= o $ X X $ p * * ",
"E l   K $ C.&X|.s.s.z.z.L L L Z Z ' A.A.< < 7.%XS.n.1 & , W W W W 3 x M j D q.bXR R X.y g 2 f A.t 0 0 a a R.x.~ % $ X X $ + + * ",
"y.$ X C.$XaX|.s.{.{.z.z.z.L B B a h t < C |.R.Z.n n s s , x W Y Y q m m 3 , j D S.^ ^ R A g C 9 0 0 0 t v 7XeX$Xo $   X p + + + ",
"+ e 9.$XaXT.s.{.{.{.L B B B - 9 < : ..7.|.F.n.n s s s s , x 3 m 3 q q m 3 m W & j Z.U.^ R A 2 f 0 t t 0 t 7.R.x.` .   X X $ * * ",
"  e $XaX=XB L L L L L B - t 6.'.2 A ;.R.S.j 1 n s 5 s , x x m 3 3 m q 3 x , , , , j D U.^ R A g C 9 h 0 7.A.C *Xz p = l X * * * ",
"u ~ 8XT.Z Z {.Z Z B Z Z - < ....X.R bXb.j 1 1 & & 5 5 , W m q m 3 q q 3 , , 5 5 , W j V.U.o.X.A g : : 0 7.A.t R.x.~ % e   X X p ",
"` wXcXz.B i Z Z Z i B B - 2 ;.X.R ^ Z.j n & & s & & 5 x x m q x 3 q m 3 x x 5 & & , , j V.U.o.X.;.< < 0 0 0 t [.@Xz 6 . p X l o ",
"z #Xz.z.i i i Z Z i i a 9 2 p.o.^ Z.M & 5 & s , , 5 5 x 3 m q m 3 3 m W x , 5 & 1 & , M n V.^ R X.g C 0 7.0 0 C F.P.` . p X e . ",
"x.=XL i Z Z - v Z i i t : y X.o.b.D ] , x , W W m x x 3 3 q m W W 3 W , , 5 & & & & 5 , 5 n U.o.R y 2 C C C C C F.e.X 6 w p . $ ",
"*X=Xi ' Z B - - i - - t 2 A R ^ h.Y H.Y m 3 m H.H.q q q q q m x 3 3 W x s 5 & & & 5 5 5 5 1 Z.o.X.y 2 g g g C [.0X~ l % w p $ p ",
"=XE.i i B - - - i - a 0 g X.^ $.Y q H.m q q q q m q q q q Y Y ] Y Y Y *.n.j x n n & 5 5 5 1 V.^ p.y 2 g g 7X[.@X].9.c e w w * * ",
"z.E.- B B i v ' - t t 0 g p.b.D Y m W 3 q 3 3 x , x x M ] Y Y h.h.*.U 3.$.D h.] j 1 & & s & n.^ p.y g 2 g ;.%X&X` 6 l e w   . . ",
"z.B - E.B i ' a a a 0 0 g o.Z.j 3 W x x x 5 , 5 5 s M ] ] ] U > > $.O.F F 0.$.$.D j 1 & & 1 n.^ p.y y 2 f [.#XC.o = e . p       ",
"=XB ' ' B - h a h h 0 C ;.o.V.n x W m x 5 & & & & j ] U U $.=.( P _ S.Q.%.[ _ 0.b.*.n.1 1 & M q.p.y y 2 g @X-X9.=   . . $ $ $ p ",
"cXE.v ' i - a a a t 0 C A ^ V.1 s W 3 M & 1 1 1 j D $.3.I T  .%. .j.K.T D.L.!.[ F ( V ] 1 1 Y =.o.A y g %Xx.~ 6   .   $ $ $ p p ",
"0XT.i v - t t t a 0 C g A ^ V.1 s j ] M 1 1 n M *.b.N 2. .H j.7 1.1.!./.} } W.} G.^.&.W.j 1 m G.o.A y [.eXz c % .       $ $ $ $ ",
"wX@XE.i a - t t h 9 g 2 A o.V.1 s j M M 1 & j h.$.q.H ~.| <X<X7 M.<X/.} U *.D *.$.N a.&.h.1 m (.bXA p.vX-.9.= . .   $ $ $ $   $ ",
"z x.R.E.- - - - h 9 f 2 y o.V.1 s j M M n n D > T T %.| M.g.g.M.XXXX{ $.O.Q I r r ( 2.[ V n q (.bX;.F.8X~ 6 o o . . $ $ $     $ ",
"u z #X7.- - - t a 0 : : g p.Z.1 s s n ] j n.b.H fXH j.7 7 7 7 7 j.j.#.I r F L.&.5.[ [ { } M H.(.F.[.eXz 6 . = =   $ $ $ $   $ $ ",
"% X DXcX7.t t - a 0 9 9 : A b.n & s n h.*.Z.N %.L.^.} r ( H  . .>.K.G Q N F [ ( k 2.%.{ ^.h.] G.F.vXwXv.c e e   p $ $ $ $ $ $ $ ",
"6 J C.x.R.E.- - a t 0 9 : g U.j & & n h.N N F F 3.*.D b.q.T Q.fX .#.k 0.S.T Q.H N.7 1.%.L.V n.<.r xXC.u 6 e = = o   $ $ $ $ $ $ ",
"l = c z #XT.B t A.t h 9 : C ^ j & 5 n h.G 8.I *.D $.Q 3.3.N T fX|  .Q.D.#.#.#.2.1.| 7 N.L.) D hX>X-X9.% %   = = %     $ $ $ $ $ ",
"e % l 9.].*XT.- t ' 6.6.9 0 p.V.j 5 n *.( Q.$.U hX{ 8.> O.0.T >.w.XX1.7 j.%.N.7 w.w.| 1./.} U J.P.` c % . o = 6 %     $ $ $     ",
". e 6 o w -X*XE.i - A.7.0 0 7XU.n.5 & ] =.#.D.^.^.( N O.q.k K.%.w.w.| | | | g.:X:Xw.M.<X!.1XW.OX2X9.e . . o = 6       $ $ $     ",
"p %   p o v.-XeXT.T.7.7.A.A.7.%Xh.& 1 ] =.H a.Q.0.0.G #.K. ..X.XM.CXXX7 | g.w.w.g.w.g.M.!.5.I.gX2X/ 6 . . o o                   ",
"o   . %   o u z x.#X*X*XqXqXR.qXhXn n M r #.H >. .fXK.>..X~..X%.7 CXw.7 7 7 | g.M.M.M.!.L.^.I.(.r.v.= o % % p                   ",
"    $ e e   o p ` C.C.v.-XwX&Xx.>XW n.] i.#.>.~.7 7 | XX| 7 ~..X~.w.CXg.7 7 %.K. .j.j.[ 2.G.>Xr.-.v.= o % % =           %       ",
"$     $ X X p     % = % = X 9.~ ).tXD D U +.>.%.7 g.:X:X:Xw.~..X~.g.:Xg.7 7 j.#.q.D.P P +.} rXz / u   % % = o                   ",
"$ $ $ $ $ $ $     6 6 % % o 6 ,.v.P.H.D *.i.F  .~.| g.w.:X| .X7 ~.XXXXFXK.k _ { I O.N k r } r./ u 6 J % % %                     ",
"$ $ $ $ $ $ $       % % % % . % v.-X>Xh.*.> F  .~.| M.M.XX>.%.j.2.2.2._ N k F eX=.q.0.Q I <.d.= J . .   % %                   % ",
"            $       . % % . e J 6 / e.m.O.0.8.[ 1.7 7 1.K.D.H k q.q.N N G =.G N S.S.N k I <.d.= J %     % %     % %   %       % ",
"      $         % . . . . . e J J l ).r.G.k P H [ %.%.K.T k P _ G k k G k I r =.N 0.k _ I J.e.= 6 u o % % % % % = = % % % %     ",
"6 %       % o o o . . . . % c 6 u u f.kX0X} r =.H K.H T 0.I =.G T T G =./.Y.yX(.I I G ( r 4.).u u u = % J J % %   % 6 % 6 % % % ",
"  % % . % % o o % = u u = u ,.u w ` @.-.OXOXJ.G.=.P _ N 0.O.$.N P &.yXMXmXrXJ.V =.H P ( ) rXf.6 6 o 6 6 p + = c 6 % 6 % % 6 % % ",
"% o o o o u u u u / / ~ :.@.@.l.@.@.@.z e.e.P.OX} ( _ k N O.$.G./.gXlX4.3X*.$.( L. .H r <.P.,.% % J J / uXnX)./ c J J J 6 u 6 J ",
"/ / u 9.~ :.@.@.l.l.l.@.@.:.~ -.rXjXr.-.,.,.uX,X(.r _ _ G Q I I Q O.*.Z.b.k F L.!.1.[ r m.-.,.% o o v.r.tXtX4.d./ J J J J u 6 6 ",
"l.l.l.l.l.@.@.:.` 9.,.,.! ! f.jX(.!.gX2Xf.; ; nXP.I.r P P _ _ P ( G _ =.F { L.<X!.1.[ r J.e.c J 6 u e.4.1X&.1X4.e./ c J J 6 6 6 ",
":.~ / ,.,.! ! ! ! ! ; ; 8 c uXm.I.<XyXOXP.f.,.t.nXd.m.r P #.#.H 2.{ { &.{ &./.!.1.1.a.r <.e.c ; 6 f.4.1X5.a.+.) jXf.,.; c 6 c J ",
"! 8 8 ; 8 ; ; ; ; ; ; 8 8 c d.4.1X&.Y.1XI.2X-.f.uXe.P.<.( #.fXH 2.{ [ [ { { j.1.N.[ 8.i.m.-.,.c c f.4.&.L.F +.) W.r.f.! c c c c ",
"; ; ; 8 8 S ; 8 8 8 8 8 8 ; ).rXI.+.5X5.1XlX2X-.f.uXP.<.r ( H 2.F a.a.2.2.2. .%.a.8.+.) >X,X/ ; c u jX+.N.a.r +.} <.r.f.! c c c ",
"! 8 8 8 8 8 8 8 8 8 8 8 8 S f.r.OX5X5X&.(.I.lX2Xt.t.P.J.3.( P #.P 8.8.8.P #.H >.a.F ) I.<.tX).! ; 8 >X+.N.5.Q r =.3.<.d.t.! ; 8 ",
"9.b S S S S S S S 8 S S S b t.e.Y.!./.5.5.5XlX2Xt.t.>XI.^.I r P P P ( Q.Q.H >.>.{ 5.G.m.U 3X,X! S S kX5.N.a.) } r =.V 4.e.t.b b ",
":.b b b b u.b b b b b b u.! l. XmXY.&.F 5./.Y.r.).B.3X3.^.&.( r +.8.8.8.H  .N.[ { G.W.V U > tXuXt.t.jX5.[ a.V W.F I U H.,Xt.u.d ",
":.u.d d d d d d d d d k.u.l.c. XsXMXY.&.F !.HXKXkXzXV Q N =.&.5.+.+.F F a.a.{ F r 3.V > > > zX4.d.d.J.&.1.&.V ) F r U 3 SXd.u.d ",
"C.u.d d d u.d d d d d k.! c.9X X}.ZXZXyX5.MXmX(.hX3.G k I Q Q +.^.F +.8.+.( I 3.> > > 3X> > V zX4.kXlXN.N.8.U i.r ) 3Xx x ,Xt.d ",
"z u.k.k.k.k.k.k.k.k.k.k.~ 9X X9Xc.c.9X XZXdX,XtX3.G G Q.k k k Q Q I I Q Q > > U U U V V 3.V V i.<.m.gX5X5.) U V ) 3XH.M 3Xr.).b ",
"-.t.k.d d u.d u.u.u.b u.@. X Xc.c.c.c.}.d.B.iX;X<.r ( ( _ G G G k Q N N > 0.O.O.U > > V i.i.3.i.) W.m.gXOXhXY H.3XH.m M I.Y.e.S ",
"].v.b b b b b S S S S ! @.}. Xc.c.c.z B.B.B.iXiX;XJ.} +.( _ D.D.D.k N q.O.O.O.O.> > > V i.i.) ) ) W.m.r.KXkXq M Y x , Y OXY.-.b ",
"sX~ S 8 8 8 8 ; ; ; 8 ,.}.}. X9X}.z dXd.,XB.B.iX;X;X4.<.} ( G D.k T T q.S.0.> > > > U > i.) ) W.J.J.4.r.-.z d.zX, , , Y 5XY.).iX",
"sX@.; ; ; ; ; ; ; ; 8 v.}.}.sXz dXdXz z -.nXB.B.iX;X;X;Xm.<.r I k T T 0.S.> Q Q 3.> > V i.) W.J.m.4.rX-.-.f.z -XB.SXW zX5XY.B.SX"
};
