/* XPM */
static char *_b6d4f2841714a15fb67ff124683125abtz2NYqql2nJFd9l[] = {
/* columns rows colors chars-per-pixel */
"64 64 175 2 ",
"   c #673E30",
".  c #61382B",
"X  c #643C2D",
"o  c #6B4133",
"O  c #693F32",
"+  c #6A4032",
"@  c #623D2D",
"#  c #653D30",
"$  c #653D2E",
"%  c #63392C",
"&  c #5D382B",
"*  c #613A2C",
"=  c #442419",
"-  c #663B2E",
";  c #5C362A",
":  c #5F392C",
">  c #653F31",
",  c #573428",
"<  c #7A4D3F",
"1  c #815244",
"2  c #6D4235",
"3  c #7A5143",
"4  c #684031",
"5  c #020101",
"6  c #563125",
"7  c #4A2A1F",
"8  c #9D7D6C",
"9  c #6B3E31",
"0  c #090707",
"q  c #84564A",
"w  c #724537",
"e  c #46281D",
"r  c #684035",
"t  c #63342A",
"y  c #562B22",
"u  c #885B4D",
"i  c #412218",
"p  c #4C2D22",
"a  c #613B30",
"s  c #512B21",
"d  c #74493B",
"f  c #704236",
"g  c #4E2A1D",
"h  c #8D6556",
"j  c #52261F",
"k  c #5F362A",
"l  c #6B392E",
"z  c #66352B",
"x  c #331911",
"c  c #A78678",
"v  c #B59385",
"b  c #C09D8F",
"n  c #BB9D8D",
"m  c #6A4235",
"M  c #5F3227",
"N  c #503023",
"B  c #623228",
"V  c #6D4538",
"C  c #7E4E41",
"Z  c #754438",
"A  c #6E3E32",
"S  c #744C3E",
"D  c #936C5E",
"F  c #805B4C",
"G  c #4A281A",
"H  c #5B3327",
"J  c #C6CDC3",
"K  c #9A7A69",
"L  c #E0EBE2",
"P  c #5B2B22",
"I  c #391B13",
"U  c #967564",
"Y  c #C5A595",
"T  c #A28273",
"R  c #DCE7DD",
"E  c #875F51",
"W  c #422A21",
"Q  c #B19081",
"!  c #D0D9D0",
"~  c #242220",
"^  c #8D5F52",
"/  c #4F221B",
"(  c #461C16",
")  c #C3A291",
"_  c #6F4B3E",
"`  c #B89889",
"'  c #BE968A",
"]  c #AB8B7C",
"[  c #181514",
"{  c #5E2C26",
"}  c #79473A",
"|  c #4B1F18",
" . c #372018",
".. c #D3ADA1",
"X. c #684333",
"o. c #755141",
"O. c #34130D",
"+. c #29120C",
"@. c #2F2E2D",
"#. c #A07F6F",
"$. c #250805",
"%. c #C8A896",
"&. c #2B1810",
"*. c #795649",
"=. c #604134",
"-. c #533327",
";. c #3E1F16",
":. c #966F61",
">. c #94665A",
",. c #292827",
"<. c #E4EFE6",
"1. c #A37467",
"2. c #22110B",
"3. c #401712",
"4. c #B99487",
"5. c #CCD4C9",
"6. c #6B352D",
"7. c #9C6B61",
"8. c #8C564C",
"9. c #743F34",
"0. c #D5DED5",
"q. c #7E5547",
"w. c #4C231C",
"e. c #4A3327",
"r. c #8F695C",
"t. c #110F0F",
"y. c #8D7665",
"u. c #876D5B",
"i. c #955E54",
"p. c #3C241D",
"a. c #72392E",
"s. c #55382C",
"d. c #CDAC9C",
"f. c #B18C7F",
"g. c #1D1B1B",
"h. c #B09686",
"j. c #826652",
"k. c #D9E3D9",
"l. c #310908",
"z. c #C1C7BD",
"x. c #947B67",
"c. c #5A3E30",
"v. c #9C7566",
"b. c #90705F",
"n. c #B0867A",
"m. c #A18B79",
"M. c #606663",
"N. c #130504",
"B. c #1D0705",
"V. c #755F51",
"C. c #894E48",
"Z. c #684E41",
"A. c #AB8075",
"S. c #A78F80",
"D. c #190E0B",
"F. c #CDA397",
"G. c #D9B3A9",
"H. c #998373",
"J. c #555653",
"K. c #A87A6F",
"L. c #404544",
"P. c #383430",
"I. c #804440",
"U. c #7B3D38",
"Y. c #B78C83",
"T. c #BEC0B4",
"R. c #A9ADA3",
"E. c #5C4A3D",
"W. c #AEA495",
"Q. c #B3BAB1",
"!. c #4C413A",
"~. c #352923",
"^. c #6D7673",
"/. c #808B85",
"(. c #6F746B",
/* pixels */
"@ @ @ @ $ $ @ @ X X X     $ X $ $ $       + 2 f w V V o.o.3 q.F F E E h :.D U 8 #.K U U b.K K b.b.U U 8 c ] f.v n b n n n b b b ",
"@ $ @ @ $ @ $ $ @ $ $ $ $ X X     4   4 m V V d d S S o.3 3 3 q.F E E h :.v.K #.c c 8 K :.U #.8 8 8 K T c f.` b Y Y Y Y Y Y ) ) ",
"@ @ @ @ @ @ $ $ @ $     X % $   4 + + m V w w d S o.3 o.3 q.3 q.F E E h D U 8 T c ] c T 8 U U 8 T c 8 8 c ] Q 4.b ) Y d.%.%.) ) ",
"X * * @ * @ $ # $ $ X % % $ $ $   + V V d V S S o.3 3 3 q.q.3 3 q.F E E h D K T c T c ] T K U K K T #.K T c ] 4.b ) %.d.d.%.%.) ",
"X * : * @ @ $ @ . % % k . % %   X.+ o V _ d o.3 3 3 q.q.q.3 3 3 3 q.q.q.u h D 8 #.c c ] c 8 U K K 8 T #.#.c ] v b ) Y %.d.d.%.Y ",
"X * @ @ @ * @ @ X   4   $ X X O m r   m V X._ _ o.*.F F F F F 3 3 < < < 1 q ^ D 8 #.T c c 8 D U K T T #.8 T ] v 4.n ) Y %.d.%.) ",
"X % @ @ * @ @ @     X 4   * . * # > & * c.c.=.=.X._ o.o.*.F F F *.*.S V S 3 q h :.:.D 8 #.8 D :.K 8 8 8 8 K c Q Q v ` b %.Y Y %.",
"% % @ k * @ @ >   $ $ k ; 6 -., @ , N s.c.s.s.e.N c.s.=._ o.*.*.*.*.o.S S S < u h D h :.8 K h h :.K 8 K U :.#.] Q v Q ` b n ) %.",
"% * @ @ @ $ @ > > X H , & N p N p e e e e.e.W 7 W W e.e.s.=._ Z._ *.*.o.S _ V < q E E h D r.u u D K U U D h v.T f.Q Q Q v n Y Y ",
"# k @ @ $ @ $ @ @ & N N N p 7 e i  .= W p e W W  . . . .p.W e.e.c.=.Z._ _ _ V _ S 3 q ^ h q 1 1 ^ D D U r.E :.v.#.c c ] Q ` ) %.",
"# @ @ @ @ @ @ @ : 6 p p p N 7 e e e W e i W p W p.x &.&.+.&.&. .W W W s.=.=.r V _ _ < q E S Z C u h h :.r.u h :.v.8 8 c v v n Y ",
"X > $ @ @ @ * @ ; 6 N N N p 7 N p p p p p W W W p.&.2.2.B.2.2.2. . . .p.i p N a > m d q.q.# # d q.q q r.h F E r.r.v.K ] ` h.n ) ",
"#   # $ $ @ @ @ * : : : * k H H ; & ; , -.e.e.e.p.&.&.x 2.2.&.2.2.2.2.&.x ;.= 7 -.a V 3 o.a r f d S 3 E F 3 E r.b.m.S.m.n h.h.n ",
"$     $ $ # : * a : & & & * @ $ $ > > a a c.s.s., -.N N p e i i i  .I I  .x x I e , > S r a r 2 m V w 3 F _ F r.b.x.H.H.m.H.8 m.",
"      $ > X H & : & ; ; ; * * : & -.-.N p W p.p.p.W p.x x x i G = e 7 e I x x &. .N : V > # r m a : r > X.=.=.s.Z.j.V.V.j.j.u.x.",
"4     >   X & & & ; , , 6 g ;.O.$.B.2.2.D.0 5 5 0 N.D.2.+.B.N.x i i i e 7 = = i I = , a r r r =.& -., -.p p p. .W E.Z.c.=.Z.V.y.",
"- %   4 $ X @ : & , 6 G ;.x O.+.$.N.0 2.D.5 5 5 5 5 5 5 B.x +.B.I i I ;.e 7 = 7 7 G 6 > S < _ a & -.7 e e x +.&.+.&.e.s.e.E.V.u.",
"% . $   $ $ > a & ; , N 7 G G = = x &.+.&.5 5 0 5 5 5 ~ &.N.x +.$.O.O.I i e 7 g g s H O 3 E *.=.-.7 p 7 7 = = i ;. . .W W =.j.u.",
"X X X       > > : : & ; , , 6 N N 6 g = I 2.N.5 5 5 D.p.+.0 N.+.O.$.O.x I i e g s y % Z u U h a = 7 7 = = 7 p , ; : & =.X.*.u.Z.",
"%   $ 4 O O   # @ : & & & ; ; ; : ; , , N p p W  . .p. .I x $.N.O.I O.O.x i = g 6 M A 1 :.T U -.I I +.+.x N.5 5 N. .s.S F j.V.[ ",
"% #   4 + O   $ > @ * * @ * : * * * * @ : & & ; , , , N p e = i I = ;.O.I i = g y k w u #.v c s.+.x +.W e.t.5 5 5 5 D.&.=.u.P.0 ",
"- - + O O X %   > X # @ * * * : : k : a > > r a a & , 6 G ;.i e 7 = = I I ;.= g y k < >.n.` b _ x B.B.x ~.[ 0 5 5 ~ W +.c.y.~ 0 ",
"# - O + O 4 >   4   X X @ * % X X @ : * a a a & ; , s g G = e = ;.i e = i = w.j P l C i.A.b F.D I ;.I I ;.&.D.0 t.W c.Z.x.y.~ t.",
"# -   O O O + O O   $ @ @ X     > > # # * & ; , , 6 s s s s 7 = I i g g g w./ j P z } i.1.b ..T = g w.w.y a a =.Z.o.j.H.%.V.t.t.",
"# - O O   %   + + O   $ * % $ > > > r r > > a a a & ; -.6 s 7 e = s y y y y y P { z Z 8.1.' ..4.p = = w.s ; r S E h y.` d.J.0 [ ",
"%     4   %   o + + O % % X $ > > X.r > r r r # a : ; -.N s s s 6 H % t t B M M B z A C.7.Y.d.F.=.7 6 s y k r _ o.F T Y %.E.0 g.",
"k % X     o o O O O - - # $ $ > r r r > r > > a a & ; , , , ; % -   w f l l B t t t l C i.A.....*.s ; a H ; * r _ U n Y Y !.0 ~ ",
"k . % - - + o O +   %   O   O r r m m m > r > > # % . * # r w w A 2 f f 9 6.z t t t A } 8.A...G.r.: > > V S o.F b.T h.) ) P.0 ~ ",
". . X       + O + o O + + + r r r m m 2 2 f V V 2 2 d < 3 1 3 < f 2 2 9 l l z t t z A } 8.1.F.G.Q F S _ 3 E b.x.8 ] Q b ` ~ 0 ,.",
"% a #     O O + + +   o o O m m m V V w w d d < < C q E u q 1 < f A 9 l z z t B B z l } 8.1.) G.Y T U F F h U x.x.] ` ) m.[ 0 ,.",
". % #     + + + o +   + o O r m V 2 d S S 3 q q q 1 h r.h u 1 < 2 9 z - t B B B M t A } 8.1.b G.d.f.Q c 8 K 8 c c Q ` Y y.t.t.@.",
". . %   # O O O o o o o 2 m m 2 V d < 1 q u ^ ^ h u r.:.D E 1 Z o - t B B M M t B z l } 8.1.b G...f.Q ' ` Q Q v ` ` ` Y V.0 [ @.",
". % % - O r + + + O o o 2 2 V d w < 1 q u ^ ^ h r.D D D r.E 1 w - t B M { M B B t z l Z 8.7.4.....` f.4.b ) b ` v v n n !.0 g.@.",
"; % # - # o O O + O + 2 2 w w d < 1 q C 1 ^ ^ >.>.:.D U r.u < 9 M P y y y P M M t z l Z 1 7.f.....' f.' ' b b n ` Q ' H.~ 0 ~ @.",
"; % # # % O     o + o o 2 2 w d C 1 1 1 1 u ^ ^ h >.>.:.>.q w M j / / / j y P M z l Z < C.7.f.d...' n.' ' b b ' n v ` J.[ 0 ,.@.",
"6 k : # % -     -   o 2 2 f w w d < C C 1 1 q ^ ^ h >.>.u 1   j | | / { t - A l l 9.1 ^ 7.1.Y.d...F.A.f.4.' ' ' ` ` Q P.[ 0 ,.,.",
"6 & * #     O 9 9 9 9   9 2 2 d f } } C 1 1 q u u ^ ^ u 1 3 . / | j z Z 9.9.< Z A } 1 i.K.f.' ..G...n.A.4.4.4.4.v n y.~ [ 0 @.~ ",
"H ; * $     O - - 9 9 9 9 9 + w w w Z < C 1 q u u u u q 1 d k w.j B A 9.9.9.Z Z 9.C 8.i.1.n.Y.' ..G.' v.f.v v v v b E.~ t.t.@.g.",
"; ; * $       # # - 9   - O   o f w Z } } < 1 q u q u q 1 f y | P 6.a.9.9.l l 6.l } C ^ >.7.A.n.' ..F.1.n.v 4.v v m.~ ,.0 [ @.[ ",
"6 6 * a %       - O     -   - 9 o 2 o w d } < 1 q q q q < - / ( P 6.a.a.l 6.B z l l 9.C 1 8.>.7.K.' F.1.#.Q 4.v n V.[ ,.0 g.@.t.",
"6 H * X % X - % - O 9 9 9 + O 9 9 9 9 2 w Z } 1 C 1 1 C < M | ( { 6.a.a.a.a.6.z l l A Z } C C q ^ 1.' 7.v.n.v v h.~.g.~ 0 ~ @.0 ",
"; & * X %     - $ - - o o O O o 2 2 o f w w Z C 1 < < C f P | 3.P a.a.9.A k - A l l 9 A f f d < 1 ^ v.u 7.c Q n y.0 ,.~ 0 ,.,.5 ",
", & : % a - - - -   O o O o 9 2 A 9 2 w w S Z } C < C < - P / ( ( { 6.j l.$.l.| t l 9 A l A Z } } u u 1 D T ] b !.0 @.g.0 @.~ 5 ",
"; & % % % % - - -   O + + 9 o 2 o o f d w < 3 < < < C f t P j w.3.3.3.O.O.3.( ( | { A 2 A f f f u #.h q >.T v S.D.[ @.t.t.P.g.5 ",
", : % % $ X   O   O O   + + o 2 2 w 2 f f w < < C < w - B y j j | | 3.3.3.( / j j y o < 3 3 *.8 b ` v.u D T n V.5 ~ @.0 [ P.[ 5 ",
"g : . % % X -     O O   o 2 o o 2 2 2 f w d < < 3 < 2 z M P y j / | ( ( 3.( / / | w.s % m _ ] ..F.b ] h D c h.~ 0 ,.@.0 g.P.t.5 ",
"s & : X % X $   O O o O O 4 + + 9 9 9 2 w d S } < w % M H P j j w.| | 3.3.( w.j s g w.s   b.h.b ) ) v K D Q u.5 [ ,.,.0 ~ @.0 5 ",
", & & * % X X $       O O   O 4 o + f w Z d d d d % ; 6 y 6 j j g w.w.g w.( g 6 6 s j % r.Q S.h.n b n ] U ] ~.5 [ ,.g.0 ,.,.0 5 ",
", , ; : % % % $ -       + O + o O + o f w d V V # ; H y s s s s g g s s s j { k y , 6 9.K.Y Y n ` n h.S.K h.(.~ g.@.[ 0 ~ g.5 5 ",
", 6 ; * % % . # -   o   + + + o 4 + + 2 V X.m X.: 6 6 , H 6 H , s y H y P P t 9 # S F E n.....d.n S.S.h.K T.R Q.^.L.L.L.L.L.~ [ ",
"-., , : * % X $ - #       O     -   4 o m @ @ > & : & : : . % t B t t B B B z 9.1 v.Q n Y.n.' %.%.h.H.m.m.k.R z.5.R.J.J.M.M.M.M.",
"p N -.& * # # X   O   O #   O   X 4 4   $ * @ > * @ * . %   - z z B B M { P { z U.>.K.1.i.8.i.1.4.S.y.x.W.k.<.! Q.! z.M.J.M.M.M.",
"p N , & *     # o O       %         4   * @ > m V X.+ - % t z t { P { { P y y { 6.U.C.i.8.q 1 u r.*.j.x.T.R k.<.J R.5.5.M.L.J.J.",
"7 p , & * $ $   + m $ % X % X 4 4     $ @ # > ; 7 ;.7 6 6 y j w.w.w.w.j P { M B B 6.9.Z t j y a g & j.m.! R 0.L R z.R.J ! M.@.L.",
"G e p , : * $     4   *     4 X.4 4   $ # : s i $.$.B.$.l.l.$.$.$.$.$.$.$.O.( j j y j ( / l q.E S o.j.W.<.0.! R <.! T.R.T.k.^.,.",
"= = e N -.:   $   4 X.> # +   o X.4 X.X.$ & 6 G = G ( O.O.O.3.3.O.O.O.O.l.l.l.l.l.3.6.u A.' Y.] 8 j.u.J <.0.! 0.L <.5.T.R.z.R /.",
"= 7 = = p & 4 4 O m X.> > X.  o m V V X.> @ k 6 y 6 P j ( ( | / / j P t z z z 6.6.i.K.n.v Y.A.] T j.S.R <.k.! ! R <.5.5.J Q.z.R ",
"i = 7 = 7 -.: > + X.4 @ @ @ $ m 4 2 2 X.$ X k M H 6 H M H / / j j P 6.1 r.7.7.1.i.7.7.K.K.7.1.c K u.z.<.L R ! ! 0.R 0.J z.J z.5.",
"g G = e = 7 , a > o X.X.> * > 4 4 o X.4   X % k M H H k % . y j y { 6.I.8.^ >.7.8.C.8.i.>.i.8 T u.W.<.L L L 0.! k.L L J Q.z.J J ",
"g g g = = e 7 , :   X.X.X.X.X.@ # 4     # X X % % k k M k -   M { { B a.I.C.i.8.I.U.I.I.C.D 8 y.m.R L L L R k.0.! k.R ! z.z.J 5.",
"g g g g i I x e , * 4 4 > > X.: y : $ $ X X % X % . . k M % $ m 4 - z 6.a.U.C.C.U.a.U.C E y.y.y.5.<.R R L <.R k.5.! 0.! J z.J 5.",
"g g g g G = x &.7 ; > > > $ > > & H * X $ $ % X X X % % % . % % X # # O A Z I.C.} f S *.j.u.u.W.L <.R R L L R k.0.! ! 5.5.J J J ",
"G g g G G G i x &.i N : @ $ 4 # & & &     $ X % X % % % . . * * k ; H 6 p s s N , @ _ F u.u.y.T.L <.L R R R L k.0.0.J 5.5.J J J ",
"G G g g G = = I +.x  .7 ; ; ; @ @ ; a # $ $ X % % % % . % % . k ; ; 6 s G = i p & 3 h b.x.x.H.z.R <.L k.0.R L k.0.5.J z.J J J J "
};
