/* XPM */
static char *_51e0d61135447fcbd5f1979530ced5dfJ3nTJWxuWH5v2Nn[] = {
/* columns rows colors chars-per-pixel */
"64 64 256 2 ",
"   c #020406",
".  c #857167",
"X  c #74544B",
"o  c #ABA19F",
"O  c #B6A9A6",
"+  c #AEA3A3",
"@  c #CCABAB",
"#  c #9C9290",
"$  c #A09694",
"%  c #B5A4A3",
"&  c #C8B9B8",
"*  c #948886",
"=  c #8E6563",
"-  c #926A67",
";  c #85736E",
":  c #BCB0AF",
">  c #CBA9B2",
",  c #CBA4AB",
"<  c #A79193",
"1  c #BD9B9A",
"2  c #AA9693",
"3  c #8A827F",
"4  c #84655B",
"5  c #948076",
"6  c #201F1B",
"7  c #AFA8A6",
"8  c #A79F9D",
"9  c #968D8B",
"0  c #917B72",
"q  c #533A2D",
"w  c #7B6B66",
"e  c #B29EA0",
"r  c #9C8A83",
"t  c #CEACB0",
"y  c #C9A1A6",
"u  c #63483B",
"i  c #8B605E",
"p  c #8B6C63",
"a  c #716763",
"s  c #694D41",
"d  c #9D7A76",
"f  c #97857C",
"g  c #CBA8A7",
"h  c #B8ACAA",
"j  c #CABDBC",
"k  c #BCA39D",
"l  c #292621",
"z  c #AE9E9B",
"x  c #B7878B",
"c  c #826D6A",
"v  c #846B62",
"b  c #A89A97",
"n  c #BB8B90",
"m  c #C7A7AA",
"M  c #C59CA0",
"N  c #BDA7A2",
"B  c #B28180",
"V  c #A6948F",
"C  c #A28680",
"Z  c #A3918A",
"A  c #675E58",
"S  c #C9A5A3",
"D  c #CEB6C1",
"F  c #C7B0B3",
"G  c #B6A49B",
"H  c #B1ACA8",
"J  c #A39C99",
"K  c #97706C",
"L  c #7B5A54",
"P  c #7C6356",
"I  c #8D6B6F",
"U  c #786661",
"Y  c #907D79",
"T  c #9D8E8A",
"R  c #553F35",
"E  c #755F55",
"W  c #95626A",
"Q  c #C2AEAD",
"!  c #362D26",
"~  c #B79E99",
"^  c #CFB5B8",
"/  c #9B6B67",
"(  c #AF9B94",
")  c #8C8484",
"_  c #9E7070",
"`  c #9B8681",
"'  c #967878",
"]  c #373431",
"[  c #A38F85",
"{  c #6E5145",
"}  c #C3B1B2",
"|  c #C5B6B5",
" . c #CFB0B6",
".. c #CDC2C1",
"X. c #B3B1AB",
"o. c #B0A6A0",
"O. c #9E8888",
"+. c #AF8D8F",
"@. c #AA8A87",
"#. c #957F7D",
"$. c #8E726B",
"%. c #8E4451",
"&. c #8B7973",
"*. c #4F443F",
"=. c #BB8F97",
"-. c #BBA4A8",
";. c #AF999A",
":. c #D2C5C8",
">. c #966973",
",. c #C29399",
"<. c #C4A6A6",
"1. c #C2A4A2",
"2. c #B79693",
"3. c #AA7E7F",
"4. c #95796D",
"5. c #975764",
"6. c #816564",
"7. c #7D675D",
"8. c #AA7B87",
"9. c #151610",
"0. c #090E0F",
"q. c #A66575",
"w. c #6A3937",
"e. c #C5A8B1",
"r. c #B79EA2",
"t. c #BCAEA8",
"y. c #BEB6B2",
"u. c #8C786C",
"i. c #A37F84",
"p. c #6A433A",
"a. c #944D5C",
"s. c #715A4F",
"d. c #483229",
"f. c #775F5F",
"g. c #61544F",
"h. c #C9B0BB",
"j. c #BE969D",
"k. c #BFABAA",
"l. c #87958C",
"z. c #B6969C",
"x. c #C7AFAA",
"c. c #8A665F",
"v. c #785D4E",
"b. c #5B5450",
"n. c #414541",
"m. c #797571",
"M. c #3D2319",
"N. c #D1BDC8",
"B. c #B28686",
"V. c #B0828B",
"C. c #827D78",
"Z. c #A6868A",
"A. c #452C1F",
"S. c #744841",
"D. c #968182",
"F. c #503227",
"G. c #423E37",
"H. c #78444A",
"J. c #321B13",
"K. c #65635E",
"L. c #817971",
"P. c #D0BDBE",
"I. c #AF928A",
"U. c #9B8180",
"Y. c #826253",
"T. c #705F59",
"R. c #635A54",
"E. c #5D4034",
"W. c #808C82",
"Q. c #180B07",
"!. c #C7A29D",
"~. c #BB99A1",
"^. c #B48C97",
"/. c #BF9595",
"(. c #794C47",
"). c #977474",
"_. c #855955",
"`. c #5F4337",
"'. c #8D595E",
"]. c #9D767D",
"[. c #4C4F4F",
"{. c #A8C4B8",
"}. c #6A544D",
"|. c #5F3532",
" X c #C9B8B3",
".X c #CCA0A0",
"XX c #A48C8E",
"oX c #A57474",
"OX c #A97A79",
"+X c #9F606E",
"@X c #ABA9A4",
"#X c #8C7365",
"$X c #917273",
"%X c #11191D",
"&X c #5C443F",
"*X c #AF9296",
"=X c #7D4952",
"-X c #A18077",
";X c #624E43",
":X c #666767",
">X c #584D46",
",X c #A86B7D",
"<X c #B08399",
"1X c #423731",
"2X c #4C3E37",
"3X c #87505C",
"4X c #C1A1A9",
"5X c #9C817B",
"6X c #7D504E",
"7X c #979196",
"8X c #4C4D44",
"9X c #AE7B90",
"0X c #8E8A91",
"qX c #14222A",
"wX c #86AD8F",
"eX c #746E6B",
"rX c #83444F",
"tX c #A8A49F",
"yX c #A17B80",
"uX c #501F21",
"iX c #7B867A",
"pX c #94BB9E",
"aX c #9C4D5B",
"sX c #9EB4AC",
"dX c #9C969A",
"fX c #84544E",
"gX c #697171",
"hX c #6E7065",
"jX c #536361",
"kX c #29312F",
"lX c #5E292F",
"zX c #8CB999",
"xX c #717F7D",
"cX c #4A6E79",
"vX c #264244",
"bX c #B6B8AF",
"nX c #A87280",
"mX c #713943",
"MX c #A35466",
"NX c #B8CFBF",
"BX c #93BFC6",
"VX c #93A396",
"CX c #7B7A81",
"ZX c #431315",
"AX c #9BC5A7",
"SX c #C2D6CA",
"DX c #98ADA0",
"FX c #00376C",
"GX c #D0E9D9",
"HX c #E8FDF2",
"JX c #889C9C",
"KX c #315560",
"LX c #8CACB0",
"PX c #062844",
"IX c #6494A7",
"UX c #5A7B5F",
/* pixels */
">X9 7 : y.: y.& & & j j j ......:...:.:.:.:.:.:.:...P.j ....j &  X XF } F & j & & F Q Q 4Xk ~ G ~ z e z b $ * #.; U *.9.0.0.9.l ",
"U $ h : : : y.& j & & j ....................j ..j & j } j j j & & & F F F & ..j & | } } -.~ ~ % % e e z 2 # 9 * &.w b.l 9.  9.] ",
"&.e : : : : : | & | & j j & | y.: y.y.X.7 J # o 8 o O z : | & j j | & | & & j & & & } k.r.~ G G % % e b V T * * 3 ; R.] 9.  9.n.",
"# h : h h : : | | & | O o.O % o 8 J # 3 C.m.a L.C.* D.Y z O | j j | | | & & & & | } t.G ~ ( Z Z T D.3 3 3 ) 3 C.3 C.T.] 6 9.9.n.",
"+ h k.h h h : } } % $ T # # 9 ) m.eXa R.b.A a K.A L.w U r 2 t.y.& | | } } | | | k.G G ( Z #.. T.g.g.>X*.8Xb.K.a a a a G.6 9.9.G.",
"% h O h O O h + # * ) C.C.eXhXK.[.n.*.G.G.*.A R.b.a a a L.* ( t.Q k.Q k.Q Q k.-.~ ( ( Z Y w >X2X2X1X! ! ! l ! *.g.b.A 8X6 9.6 8X",
"% % O O % 8 # * 3 3 C.hXK.b.[.n.G.] ! ! 1X*.g.A A a a w ; 5 [ G G k N k Q N k ~ *X2 [ 0 U >X1X] ! l 6 6 6 6 6 6 ! 2X*.n.kX9.6 l ",
"o.% % % $ 3 3 ) C.L.eXhXK.b.b.8XG.1X1X2X*.A a U w w . w . 5 [ ( G N k N N 1 2.I.@.C 0 7.;XR 1X! ! l J.l l l l l ! 1XG.G.G.6     ",
"% o.% z 3 C.3 C.C.L.m.m.m.3 7X* L.m.m.L.. w v v 4 4 v . #X4.C I.~ N N N 1.1 I.@.-X4.v s.`.R q q R R R 2X*.b.R.a A *.1X! ! kXjXJX",
"e % e 8 ) C.3 9 9 * * * 9 # 8 @XtX@X8 b r f 0 #X4 Y.4 p #X4.-XI.~ k k k k 2.@.-XK c.X u q E.u }.E . L.Y 9 $ # * L.A *.] l n.{.GX",
"e % z 8 3 C.9 $ 8 # # $ J o + o.o.O 7 o b b T f 0 . v p - K -XI.2.k 1.1.<.~ @.d c.X s E.u v.. &.f T J o o o 8 # * L.R.G.l 8XpXNX",
"e O z $ ) 3 9 # 9 # 8 o 8 V 2 2 ( V Z [ f r r r #.Y . 4 4 #X-XI.k N x.x.m 1 I.d L p.E.u 7.&.* * * r T r T V Z ` #.; a b.] 8XpX{.",
"e O o $ 9 ) 9 # 9 9 $ $ O.` 0 v s.&Xq ! J.! d.u 4 &.&.v 4 p d @.~ N x.F x.N I.K X E.`.E &.Y L.s.2X! J.M.! 2XR X 6.U T.R.n.jXzXAX",
"% O + $ 9 # $ # # # * 0 4 s A.Q.Q.0.          Q.M.X . ; . u.5 @.~ x. XP. X<.2.d { u T.; c E d.Q.l kXqX        Q.A.&X}.g.b.UXzXAX",
"% O O J $ $ # # T 5 . u J.Q.9.vXcXcXKXcXvX%X0.9.J.F.P $.Y 9 V ( k  XP.P.P.m 2.C L s.w w E F.G.xXLXIXcX%X0.0.    Q.A.&X}.K.wXAXAX",
"O O o.8 8 J $ # 5 4 F.Q.Q.! :XLXBXBXKXvX%X%XvXkXd.q p ` $ 8 h N 1. X^ P.^ @ 1 3.v U c ; u *.l.{.BXIXvXkXqXqX6 Q.Q.J.&X;XK.pXpXzX",
"o.O o.o.7 tX$ r #X|.M.g.A T.C.JXBXBXcXvXvXn.KX[.>XF.5 y.y.+ : Q 1.t ^ ^ ^ m j.B.- v T 5 }.3 9 dX7X0XgXK.jXb.g.g.>Xd.q ;XhXwXwXwX",
"o.O o.O y.o.[ p S.s r H H + $ * 0X0XW.xXgX:Xw 5 Z Z (  X: % } x.S t t  .^ > ,.x _ v r b b H 7 + o $ $ # * Y &.Y Y U R E.R.wXzXpX",
"o.z V C 4.-X[ C [ G % % O h y.: h o b o.o V Z ( e O : t.N N m S !.@ @ t ^ m /.x _ = ; T 8 + o b b o + + o b Z O.0 v . E ;XwXAXpX",
"z 2 [ [ ~ Q N N x.x.Q t.Q k.y.| y.: t.O z 2 2 < 2 z O k 1 x.S !.!.@ t t ^ m /.x oX- p &.# T D.D.D.#.#.' d d 4.= Y.Y.- $.w W.zXwX",
"o o.O t.t.N k <.1.1 1 1 1 k N ~ 2.I.I.@.@.C C XX*X-.1.!.S S .XS g @ t t  . .y n OX/ = $.' D.D.D.$XI p i _.fXfX_.- ].).$.. iXzXwX",
"8 o.G G G N k 1.1.1.<.1.1 2.+.+.+.+.+.+.@.@.;.-.<.<.<.S @ S g g @ g @ @  .t , ,.B / = - K d C U.' $XI - - K / _ OXB 3.K . iXzXpX",
"b z G G k k k <.<.m <.M 1 /./.2.2.1 z.1 ~.m @ m m m g @ @ g S S g g g , t t > M n oXc.c.- _ OX@.@.+.+.+.B.x n n n x 3.d $.L.wXpX",
"V ( G G G ~ 1.<.<.m @ @ , y y y y , m , , , y , y y , g g S S S g S g @ t  .t M /.3.= c.= K 3.B.B.x n n ,.,.,.,.n x B i.$XL.{.GX",
"V b z G N k <.1.m > t > > > , y y M M y M y y , , , , , @ @ @ @ S S g y t  .> y /.B - c.= K 3.B.B.x n n ,.,.,.,.,.n V.8.' L.GXHX",
"T 2 G t.t.k.k.m m > t  . ., y M y , , , , , , t t @ t t @ @ x.g S .X.X.Xt @ y y ,.B / c.p K 3.B.B.B.x n =.,.=.,.=.x V.8.].; SXHX",
"T 2 G h : Q k.} e.> > > > > > > h.> h.> >  .^  . . .^ ^ ^ @ g S !..X.X.X, g M M /.B / = p d C B B B x x =.j.j.=.=.x V.8.].I @XHX",
"T ( o.t.k.} Q Q e.e.> > h.D N.N.D D N.D D D D t @ @ 1.x.x.!.!.!.!..X.X.X, , y y /.B _ - c.- 4.-X3.B.B.x n j.j.M j.=.n V.yXI J HX",
"T z O t.Q } Q e.e.e.> D N.N.:.N.N.N.D ^  .e.M /.x B B.2.1 1 !.!.!.S S , t t y M /.B oX/ = c.Y._./ OXB B n =.j.M ~.j.^.+.i.' 9 GX",
"$ o.O k.Q Q Q e.h.h.D D N.N.N.N.D F M M ,.n B oX/ / 2.1 1 M 1.S g @ @ ^ D N.t M /.B OX_ - c.4 (.(./ OXB.x =.=.j.j.~.=.V.i.].* NX",
"$ o.h : t.} } h.h.h.D D D D D h.m j.n x B OX/ fX(.d 2.1 ,.,.1 S m >  .D :.:. .M n B oX_ - i = 4 p.S.= oX3.x n =.=.=.^.V.i.' &.NX",
"$ o.h : t.} F h.h.h.h.h.h.e.e.~.j.n V.OX/ '.S.p.L i.j.M M j.1.e.m > F ^ :.:.P.m n B oX/ K = = = { |.S.i _ 3.V.x ^.^.V.8.yX$Xc bX",
"$ @XH h : } } e.e.e.e.4X4X4X~.=.x 3.oXW fXp.w.(.L i.M 4Xm 4Xm F F e.F ^ P.:.:.t n B _ / K = i = L E.|.(.= _ 3.V.V.V.V.i.].I 6.DX",
"$ o O O : Q Q 4X4Xe.4X~.~.j.^.V.3._ i 6Xw.w.fX= p 5Xz.<.m m <.k.} F F h.D N.P.m /.B oXK K = i i L L p.|.(.'._ 8.8.8.i.yX' I U bX",
"J o.H h h k.k.-.-.-.z.2.z.^.+.yXK '.(.w.p.i d @.XXU.C z.1 1 1 k N Q F F h.^ F 1.2.OXoXd - c.i L L p c.p.w.6X= >.].yXi.].I 6.U NX",
"J 7 X.h h -.-.-.-.r.z.*X*XZ.i.K _.(.w.S.- 3.+.~.*XO.$X#.C I.2.( ~ ~ N k.<.M 1 =.B.3.d ).c.L X s _.- K = p.S.'.W ].].].>.I f.w SX",
"J H 7 O % % -.-.r.z.*X+.Z.i.$Xi (.w.S.K @.2.z.r.+.i.I f.L L 7.&.r Z V ( ~ 2.+.3.3.d K P }.&XR `._.= / _ 4 p.6Xi >.>.$XI 6.}.m.{.",
"J 7 H H + e r.% r.e *XZ.i.' i 6Xw.S.K Z.+.*Xz.;.< U.I f.}.R q R ;XE . 0 C C -Xd ).4 X &Xd.M.F.`.(._.i / _ L (._.- >.>.6.f.g.W.NX",
"J @XH H + o + % e ;.< O.' = 6Xw.S.K @.@.@.Z.XXXXU.$.6.c E &X;XR d.d.R }.L P P L s E.d.M.J.J.A.q p.S.6Xi _ - 6X_.= I I 6.f.g.VXSX",
"J @XH X.+ + + e e < < ` I L p.S.).i.+.C 5XU.$X$.c.L P 4 { s s `.`.R q d.d.q d.d.M.J.J.J.M.M.M.F.F.u { _.= ).c.4 = I I c T.A X.SX",
"$ @XbXX.7 7 + + + < O.' 4 p.X 5XZ.Z.< U.).c.4 4 Y.L v.X v.X { E E s u q d.d.M.M.M.A.A.M.M.A.A.F.F.F.`.X _.- - p K ).$Xc f.a {.SX",
"$ @XbXbXH 7 7 7 o < U.$.X X #.Z.Z.Z.O.Y . Y.v.Y.c.$.P v.P P P v P X s q u ;Xq A.q q q q F.A.A.F.F.A.F.`.X c.- $.5XU.' ; U eXDXsX",
"# @XX.: X.H H 7 + V ` $.Y.5 O.i.Z.U.$.. v.v.4 4 u.` 0 v #Xu.u.5 u.Y.{ s v.7.s.`.E.s u u `.q q R E.q d.q `.X - $.Z < U.; w a cXcX",
"7XtXX.X.X.X.H + z < T f #XO.#.' ' v 7.7.v.#X5 5 f V O.5 ` r [ [ r 4.4 p $.0 0 p v #XP X s s s ;Xs.;Xq q `.p.X p ` 4.p c U K.jXjX",
"dX8 H 7 X.X.H + ;.< b [ 5 f ' $.7.X v.7.v f # Z 2 z 2 Z.i.i.yXd yXC C C [ [ [ d K i 6X(.6XX X X f.;XR R `.s p.X p fX4 ; a hXiXl.",
"dX8 + 7 X.H H 7 8 ;.2 V 4.u.0 4 s.{ 7.v &.O.< XXZ.Z.i.].>.>.W W W >.>._ d d - _.=XH.H.H.H.H.(.H.X s ;Xu u s { s.$.' Y ; a m.l.l.",
"7XdX@X+ 7 H @X+ + o.( I.p u.u.v.s E 7.&.0 ].].>.>.W W W >.>.>.>.>.W W '.3XfX=X=X=X=XH.H.H.H.mXw.|.|.{ X { { s P f T Y U a iXl.l.",
"0X7X$ 7 h 7 tXo + 7 % ( 4.. E s.s s.E L (.=X3X3X3XrX=XrXrX=X=X3X=X3X3X=X=XmXw.w.|.lXlXuXlXlX|.uXZXuXp.L P v.s v.` [ ; T.:XW.l.l.",
"CX) # 7 h + @X@X@X7 % ;.4.{ s.{ s { p.uXZXZXuXF.S.S.{ |.p.{ s X X p.w.|.E.u u `.E.u u A g.F.ZXZXlXH.i 4.#X4 s.E 5 ` c A :XW.l.l.",
":X) dX+ 7 tXtXtX@X7 + ;.4.v.E { P . _.rXmX|.w.uXb.JXK.d.W.l.W.DX{.VXl.L.W.VXDXVXiXiXhXxXl.&XuXmX%./ -X5 0 p Y.u.f Y a A gXW.W.W.",
"jXCX7X8 + @XJ $ + + o 2 5XP P P u.T @.V.q.a.a.3XH.*.J.|.LXBXsX{.NX{.{.DXsX{.{.sXl.l.K.9.m.H.rX%.5._ d 5 5 p Y.5X` ; A [.gXiXW.W.",
"n.gX7XdX$ b o 8 tX8 o b C 4.. P 0 V ( 1 x q.aXMXMX%.lXmXf.eXA eX{.sXsXl.VXsXsXVXm.eX&XlXrX%.%.a.+Xd 5X` f u.#X0 Y w g.R.:XxXxXiX",
"n.:X0X7X# < 8 @XJ $ o z 2 5Xv.Y.f 2 e r.z.^.nXq.q.MXMXa.rXw.&X*.g.g.1XJ.M.>XhX&XuXmX%.aX%.%.%.W ).d U.f f 0 u.0 c A b.R.a gXxXxX",
"n.[.CX7XdXJ J J # J o b 2 4.Y.#XZ z % % -.z.^.V.8.q.,X,Xq.MXa.3Xf.eXK.R.K.w f.=X%.aX%.%.%.%.5.W ).' #.#.f 5 u.v T.R.m.}.g.[.[.jX",
"n.n.:X0X7X# $ J # J o b V 5X4.5 Z ( ;.r.-.-.~.z.^.9X9X9X<X9Xq.MXaXa.a.'.5.5.aXaXaXa.a.%.%.3XW ).$XY ' ' ` 5 . U g.>XT.r U 9.0.%X",
"kX] [.CX0X9 # $ $ # 8 b V r 5 f V 2 ;.r.% r.r.~.~.~.^.<X<X<X<X<X<X8.,Xq.q.,Xq.+X+X5.5.%.%.'.W $XI $X$X' #.; 7.R.8XG.;XP 5 2X%X  ",
"l ! G.gX0X* 9 9 9 # J b V r f r V ;.e e e r.r.r.~.z.z.<X9X8.9X9X<X9X9X8.8.8.nX+X5.5.a.%.'.W - I c $X$.` Y f.}.>X] l R v 4.U n.0.",
"qX! ] [.CX0X* ) ) 9 # b V f 0 5 Z ;.;.e e e e e e z.^.^.<X8.,X,X,Xq.nX,Xq.,X+X5.a.a.a.5.'.- I c ; ; 0 O.Y T.>X] %X6 6 G.. V ; R ",
"%X! ] ] :X) ) 3 ) * * # T 5 u.0 r Z ( ;.;.;.;.2 2 e z.+.8.8.nX,Xq.q.q.+X+X+X5.a.5.5.W W i p 6.c ; ; ` ` . T.*.6 0.0.0.0.0.n.8X1X",
"qX6 l ] [.m.) 3 ) ) ) 9 f 0 7.7.. f 2 ;.;.*X< 2 < < *X*X+.3.OXoXq.+Xq.+X+X5.a.a.5.5.W i 6.6.U E v &.O.D.w g.] 9.              0.",
"PX%Xl ! ] b.m.) 3 3 3 3 #.&.s.7.; f # b 2 2 < < XXXXXX< XXC OXoX/ W / W = '.'.'.i c.p 6.6.U w U . f Z D.c *.l 0.                ",
"FXqX6 6 6 ] [.:XeXm.w w &.E X v.7.3 $ V V V V < XXO.O.O.O.r U.U.' I v 6.6.6.6.c c ; c f.f.f.w ; 5 [ r Y a ] 9.0.                ",
"FXPX6 %X6 l ] [.K.R.A A T.{ s }.w * * r C [ T T XXO.D.#.#.D.#.Y &.; c c c w c w w w f.T.E f.c u.r Z ` &.R.l 0.                  ",
"FXFXqX6 l 6 ] *.2X2X2X*.&XR R s c &.u.` Z [ ` r r D.D.D.D.Y $.v 6.. c 7.7.E E s.}.s.}.s.E P v f Z r #.; 8XqXqX            0.%X%X"
};
